<svg width="29" height="31" viewBox="0 0 29 31" fill="none" xmlns="http://www.w3.org/2000/svg">
<path d="M6.64626 15.0279C3.03994 14.6599 1.38391 14.2919 0.427132 14.9911C-1.33923 16.2791 2.63512 18.0822 7.5294 18.2662C12.3134 18.4134 11.5406 15.5431 6.64626 15.0279Z" fill="#F480D4"/>
<path d="M15.1837 20.5122C13.5278 19.4451 11.3934 19.3715 10.9518 20.4018C10.3998 21.7266 9.88464 28.1665 10.2894 28.9392C11.0254 30.4112 15.4045 31.2944 15.8829 30.08C16.5821 28.1665 16.1037 21.101 15.1837 20.5122Z" fill="#F480D4"/>
<path d="M11.7953 0.74968C10.0657 1.04407 9.51371 9.87586 11.0961 11.7894C12.4208 13.3718 16.5791 15.0277 16.4687 10.0967C16.3215 3.03122 16.1743 0.0504968 11.7953 0.74968Z" fill="#F480D4"/>
<path d="M26.1489 14.9545C24.3825 14.2186 17.2435 14.2554 16.9859 15.0281C16.3603 16.6105 19.3043 17.7881 23.9041 17.7881C28.5408 17.7881 29.6448 16.4265 26.1489 14.9545Z" fill="#F480D4"/>
</svg>
