<svg width="177" height="31" viewBox="0 0 177 31" fill="none" xmlns="http://www.w3.org/2000/svg">
<path d="M171.021 24.8612C170.456 24.2317 169.978 23.5293 169.597 22.7726C168.997 21.5865 168.166 20.5335 167.155 19.6757C166.144 18.8179 164.973 18.1725 163.71 17.7778C162.606 17.4339 161.451 17.288 160.297 17.3466C161.137 17.2983 161.964 17.5714 162.612 18.1114C163.261 18.6514 163.683 19.4183 163.794 20.2584C164.097 22.0736 164.896 23.768 166.101 25.1523C167.305 26.5367 168.868 27.5564 170.615 28.0977C172.612 28.716 174.752 28.6827 176.73 28.0025C174.527 27.6407 172.513 26.5326 171.021 24.8612Z" fill="#22D3EE"/>
<path d="M156.858 17.1673C157.115 18.288 157.567 19.3556 158.194 20.3221C157.737 19.6203 157.56 18.7738 157.701 17.9494C157.841 17.125 158.287 16.3827 158.951 15.8689C160.362 14.7104 161.422 13.1858 162.011 11.465C162.601 9.74425 162.698 7.89477 162.291 6.12259C161.827 4.09527 160.725 2.2669 159.146 0.901367C159.932 2.9877 159.978 5.27803 159.274 7.39337C159.005 8.19197 158.63 8.95178 158.161 9.65314C157.44 10.7549 156.949 11.989 156.716 13.2825C156.484 14.576 156.515 15.9026 156.808 17.1839L156.858 17.1673Z" fill="#8B5CF6"/>
<path d="M161.78 21.0693C161.407 21.8233 160.767 22.4061 159.988 22.7007C159.21 22.9954 158.351 22.9801 157.583 22.658C155.89 22.0137 154.055 21.8602 152.282 22.2146C150.509 22.5689 148.867 23.4173 147.541 24.6647C146.03 26.0935 145.004 27.9732 144.611 30.0328C146.018 28.2979 147.965 27.1024 150.131 26.6436C150.945 26.4744 151.776 26.4089 152.606 26.4485C153.907 26.517 155.209 26.32 156.434 25.8691C157.659 25.4181 158.783 24.7224 159.739 23.823C160.576 23.0336 161.27 22.1017 161.791 21.0693H161.78Z" fill="#2DD4BF"/>
<path d="M0.857422 29.9011H5.57342V18.4171C5.57342 17.1451 5.92142 16.1251 6.61742 15.3571C7.31342 14.5891 8.22542 14.2051 9.35342 14.2051C10.5054 14.2051 11.4174 14.5891 12.0894 15.3571C12.7854 16.1011 13.1334 17.1211 13.1334 18.4171V29.9011H17.8494V18.4171C17.8494 17.1451 18.1974 16.1251 18.8934 15.3571C19.5894 14.5891 20.5014 14.2051 21.6294 14.2051C22.7814 14.2051 23.6934 14.5891 24.3654 15.3571C25.0614 16.1011 25.4094 17.1211 25.4094 18.4171V29.9011H30.1254V17.3011C30.1254 15.8371 29.8014 14.5531 29.1534 13.4491C28.5294 12.3211 27.6774 11.4451 26.5974 10.8211C25.5174 10.1971 24.2814 9.88505 22.8894 9.88505C21.5934 9.88505 20.4174 10.1491 19.3614 10.6771C18.3294 11.2051 17.4774 11.9971 16.8054 13.0531C16.2294 12.0931 15.4014 11.3251 14.3214 10.7491C13.2654 10.1731 12.0774 9.88505 10.7574 9.88505C9.53342 9.88505 8.44142 10.1251 7.48142 10.6051C6.52142 11.0851 5.78942 11.8051 5.28542 12.7651V10.3171H0.857422V29.9011Z" fill="#12141D"/>
<path d="M40.0552 30.3331C42.5992 30.3331 44.6392 29.4931 46.1752 27.8131V29.9011H50.6392V16.8691C50.6392 15.5011 50.2912 14.2891 49.5952 13.2331C48.8992 12.1771 47.9392 11.3611 46.7152 10.7851C45.5152 10.1851 44.1112 9.88505 42.5032 9.88505C40.5352 9.88505 38.7832 10.3531 37.2472 11.2891C35.7112 12.2251 34.6552 13.4611 34.0792 14.9971L37.9312 16.8691C38.2912 15.9811 38.8552 15.2731 39.6232 14.7451C40.3912 14.1931 41.2912 13.9171 42.3232 13.9171C43.4032 13.9171 44.2672 14.2051 44.9152 14.7811C45.5872 15.3331 45.9232 16.0291 45.9232 16.8691V17.5171L40.0912 18.4531C37.7872 18.8371 36.0832 19.5691 34.9792 20.6491C33.8752 21.7291 33.3232 23.0851 33.3232 24.7171C33.3232 26.4451 33.9352 27.8131 35.1592 28.8211C36.3832 29.8291 38.0152 30.3331 40.0552 30.3331ZM38.2192 24.5371C38.2192 23.1691 39.1432 22.3051 40.9912 21.9451L45.9232 21.1171V21.9091C45.9232 23.2531 45.4552 24.3931 44.5192 25.3291C43.6072 26.2651 42.4072 26.7331 40.9192 26.7331C40.1272 26.7331 39.4792 26.5411 38.9752 26.1571C38.4712 25.7491 38.2192 25.2091 38.2192 24.5371Z" fill="#12141D"/>
<path d="M54.998 29.9011H59.714V18.9931C59.714 17.5051 60.122 16.3531 60.938 15.5371C61.778 14.6971 62.858 14.2771 64.178 14.2771H65.87V10.1011H64.718C63.518 10.1011 62.462 10.3171 61.55 10.7491C60.6381 11.1811 59.93 11.9611 59.426 13.0891V10.3171H54.998V29.9011Z" fill="#12141D"/>
<path d="M77.9182 30.1171C78.7102 30.1171 79.4902 30.0571 80.2582 29.9371V25.8691C79.8022 25.9411 79.3822 25.9771 78.9982 25.9771C77.8462 25.9771 77.0062 25.7131 76.4782 25.1851C75.9502 24.6571 75.6862 23.9011 75.6862 22.9171V14.5291H80.1862V10.3171H75.6862V5.85306H70.9702V7.36506C70.9702 8.32506 70.7062 9.05706 70.1782 9.56106C69.6502 10.0651 68.9062 10.3171 67.9462 10.3171H67.5862V14.5291H70.9702V23.1691C70.9702 25.3531 71.5702 27.0571 72.7702 28.2811C73.9942 29.5051 75.7102 30.1171 77.9182 30.1171Z" fill="#12141D"/>
<path d="M83.8613 8.12106H88.5773V3.08105H83.8613V8.12106ZM83.8613 29.9011H88.5773V10.3171H83.8613V29.9011Z" fill="#12141D"/>
<path d="M92.9316 29.9011H97.6476V18.4171C97.6476 17.1451 98.0076 16.1251 98.7276 15.3571C99.4716 14.5891 100.432 14.2051 101.608 14.2051C102.784 14.2051 103.732 14.5891 104.452 15.3571C105.196 16.1011 105.568 17.1211 105.568 18.4171V29.9011H110.284V17.3011C110.284 15.8371 109.972 14.5531 109.348 13.4491C108.724 12.3211 107.848 11.4451 106.72 10.8211C105.616 10.1971 104.344 9.88505 102.904 9.88505C101.68 9.88505 100.576 10.1251 99.5916 10.6051C98.6316 11.0851 97.8876 11.7931 97.3596 12.7291V10.3171H92.9316V29.9011Z" fill="#12141D"/>
<path d="M123.847 30.3331C125.743 30.3331 127.471 29.9011 129.031 29.0371C130.591 28.1491 131.839 26.9371 132.775 25.4011C133.711 23.8411 134.179 22.0771 134.179 20.1091C134.179 18.1411 133.711 16.3891 132.775 14.8531C131.863 13.3171 130.627 12.1051 129.067 11.2171C127.507 10.3291 125.767 9.88505 123.847 9.88505C121.903 9.88505 120.151 10.3291 118.591 11.2171C117.031 12.1051 115.783 13.3171 114.847 14.8531C113.935 16.3891 113.479 18.1411 113.479 20.1091C113.479 22.0771 113.935 23.8291 114.847 25.3651C115.783 26.9011 117.031 28.1131 118.591 29.0011C120.175 29.8891 121.927 30.3331 123.847 30.3331ZM123.847 26.0131C122.791 26.0131 121.843 25.7611 121.003 25.2571C120.187 24.7531 119.539 24.0571 119.059 23.1691C118.603 22.2571 118.375 21.2371 118.375 20.1091C118.375 18.9811 118.603 17.9731 119.059 17.0851C119.539 16.1971 120.187 15.5011 121.003 14.9971C121.843 14.4691 122.791 14.2051 123.847 14.2051C124.903 14.2051 125.827 14.4691 126.619 14.9971C127.435 15.5011 128.071 16.1971 128.527 17.0851C129.007 17.9731 129.247 18.9811 129.247 20.1091C129.247 21.2371 129.007 22.2571 128.527 23.1691C128.071 24.0571 127.435 24.7531 126.619 25.2571C125.827 25.7611 124.903 26.0131 123.847 26.0131Z" fill="#12141D"/>
</svg>
