<svg width="40" height="40" viewBox="0 0 40 40" fill="none" xmlns="http://www.w3.org/2000/svg">
<rect width="39.9974" height="39.9974" fill="#080A47"/>
<path d="M0.00130272 0.00260544C5.30529 0.00260544 10.392 2.1096 14.1425 5.86009C17.893 9.61057 20 14.6973 20 20.0013C20 25.3053 17.893 30.392 14.1425 34.1425C10.392 37.893 5.30529 40 0.00130463 40L0.00130272 0.00260544Z" fill="#F480D4"/>
<path d="M39.6743 15.3536C36.4127 13.5798 32.58 13.1743 29.0193 14.2264C25.4587 15.2785 22.4619 17.7019 20.6881 20.9636C18.9143 24.2253 18.5089 28.058 19.5609 31.6186C20.613 35.1792 23.0365 38.176 26.2981 39.9498L39.6743 15.3536Z" fill="#FFC947"/>
</svg>
