<svg width="118" height="137" viewBox="0 0 118 137" fill="none" xmlns="http://www.w3.org/2000/svg">
<path d="M58.7671 113.038C58.9361 115.698 65.0595 115.009 84.8692 110.184C105.836 105.062 110.29 103.175 109.007 100.267C107.191 96.2902 58.6051 108.726 58.7671 113.038Z" fill="#FFDE70"/>
<path d="M29.7425 22.374C21.7684 23.6203 20.928 25.1382 18.0938 43.3372C15.1469 62.1315 15.2779 65.6547 18.756 66.4205C25.0689 67.7833 27.4452 63.0211 32.2501 39.9307C35.7854 22.8932 35.628 21.4541 29.7425 22.374Z" fill="#FFDE70"/>
<path d="M77.6741 43.1686C71.9588 43.9858 70.0341 45.4376 64.2235 53.2124C47.0736 76.339 33.0127 91.5411 44.1105 89.7287C48.6444 89.0196 52.2702 85.0387 73.2184 58.6331C84.7305 43.9829 85.3266 42.1252 77.6741 43.1686Z" fill="#FFDE70"/>
</svg>
