<svg width="142" height="34" viewBox="0 0 142 34" fill="none" xmlns="http://www.w3.org/2000/svg">
<g clip-path="url(#clip0_1828_7840)">
<path d="M50.653 12.5144V14.3739H50.7103C51.3847 13.3783 52.5042 12.2058 54.9856 12.2058C56.9161 12.2058 58.397 13.1809 59.0317 14.6537H59.0889C59.6311 13.909 60.2525 13.3454 60.9489 12.9464C61.7731 12.4732 62.6899 12.2017 63.8446 12.2017C66.4583 12.2017 68.7722 13.8885 68.7722 18.1424V26.2101H64.7878V18.706C64.7878 16.5503 64.0033 15.3037 62.3725 15.3037C61.1781 15.3037 60.3098 16.0525 59.9793 16.974C59.8647 17.2908 59.8118 17.7228 59.8118 18.0848V26.2142H55.8274V18.4016C55.8274 16.5708 55.0737 15.2996 53.465 15.2996C52.178 15.2996 51.3714 16.2458 51.0409 17.0563C50.8998 17.4019 50.8558 17.8009 50.8558 18.1753V26.2101H46.867V12.5144H50.653ZM89.3375 12.5144V15.098H89.4477C90.1793 13.1233 91.9159 12.2058 93.4409 12.2058C93.8243 12.2058 94.0359 12.2346 94.3444 12.2922V15.8797C93.9786 15.8303 93.6392 15.7809 93.1632 15.7809C91.4355 15.7809 90.2322 16.7189 89.9281 18.1877C89.862 18.4921 89.84 18.8212 89.84 19.1997V26.2142H85.7498V12.5144H89.3375ZM99.8978 7.97656V12.2881H103.353V15.7768H99.8978V20.9235C99.8978 22.5897 100.352 23.3961 101.701 23.3961C102.335 23.3961 102.802 23.322 103.208 23.2274L103.261 26.1196C102.719 26.3088 101.564 26.5145 100.391 26.5145C99.0119 26.5145 97.8616 26.0661 97.1608 25.3708C96.3586 24.5768 95.9884 23.2768 95.9884 21.4254V7.97656H99.8978ZM44.0903 26.2101H40.1235V7.97656H44.0903V26.2101ZM33.5123 21.3185C33.5123 21.5694 33.4903 21.8327 33.4154 22.059C33.1068 23.0093 32.0534 23.8116 30.74 23.8116C29.6425 23.8116 28.7699 23.2315 28.7699 22.0014C28.7699 20.1213 30.9912 19.5988 33.5167 19.6111V21.3185H33.5123ZM37.4746 18.0396C37.4746 14.9334 36.0554 12.2058 31.2557 12.2058C28.7919 12.2058 26.835 12.8517 25.7684 13.4277L26.5485 15.9208C27.5225 15.3448 29.0784 14.8717 30.5505 14.8717C32.9878 14.8676 33.3845 16.1594 33.3845 16.9864V17.1838C28.0735 17.1756 24.7194 18.8912 24.7194 22.3881C24.7194 24.5233 26.4251 26.5228 29.3957 26.5228C31.2248 26.5228 32.7498 25.8439 33.6666 24.7537H33.7547C33.7547 24.7537 34.363 27.1193 37.7038 26.2142C37.5275 25.2268 37.4702 24.1777 37.4702 22.9147V18.0396H37.4746ZM4.79315 7.97656C5.20304 9.90606 6.36662 15.5094 6.36662 15.5094C6.85585 17.8133 7.30541 20.2282 7.64479 22.1372H7.7065C8.03706 20.1089 8.55714 18.1877 9.11248 15.8097L11.0738 7.97656H15.4152L17.2487 16.0113C17.7291 18.2453 18.1126 19.9691 18.4167 22.0467H18.474C18.8045 19.9485 19.2365 18.1548 19.7081 15.8591L21.4711 7.97656H25.6361L20.475 26.2101C17.187 26.8807 15.9265 25.6465 15.4769 23.6882C15.0273 21.7258 14.1458 17.9943 14.1458 17.9943C13.6919 15.9496 13.3393 14.5097 13.0924 12.4115H13.0307C12.6781 14.4891 12.3079 15.9455 11.7614 17.9902L9.59731 26.2142C6.2388 26.8395 5.07523 25.9139 4.43174 23.4002C3.87639 21.2485 0.412109 7.98068 0.412109 7.98068H4.79315V7.97656ZM79.1386 21.3185C79.1386 21.5694 79.1166 21.8327 79.0416 22.059C78.7331 23.0093 77.6797 23.8116 76.3663 23.8116C75.2688 23.8116 74.3961 23.2315 74.3961 22.0014C74.3961 20.1213 76.6175 19.5988 79.143 19.6111V21.3185H79.1386ZM83.1009 18.0396C83.1009 14.9334 81.6817 12.2058 76.882 12.2058C74.4182 12.2058 72.4613 12.8517 71.3946 13.4277L72.1748 15.9208C73.1488 15.3448 74.7047 14.8717 76.1768 14.8717C78.6097 14.8676 79.0108 16.1594 79.0108 16.9864V17.1838C73.7042 17.1756 70.3501 18.8912 70.3501 22.3881C70.3501 24.5233 72.0602 26.5228 75.0264 26.5228C76.8511 26.5228 78.3805 25.8439 79.2929 24.7537H79.3854C79.3854 24.7537 79.9936 27.1193 83.3345 26.2142C83.1582 25.2268 83.1009 24.1777 83.1009 22.9147V18.0396Z" fill="#041E42"/>
<path d="M119.433 19.9307C119.824 20.5965 119.797 21.3397 119.38 21.6791L112.166 26.6238C111.415 27.0491 110.29 26.5336 109.653 25.4553C109.012 24.3727 109.126 23.1655 109.877 22.7402L117.864 19.1059C118.365 18.9168 119.042 19.2648 119.433 19.9307ZM128.927 19.9307C129.322 19.2648 129.994 18.9211 130.495 19.1016L138.487 22.7359C139.238 23.1612 139.348 24.3684 138.711 25.451C138.069 26.5293 136.94 27.0405 136.193 26.6195L128.979 21.6748C128.567 21.3397 128.536 20.5923 128.927 19.9307ZM124.178 22.6114C124.964 22.6114 125.61 23.0066 125.698 23.5264L126.475 32.1097C126.475 32.9603 125.46 33.6562 124.182 33.6562C122.908 33.6562 121.889 32.9603 121.889 32.1097L122.662 23.5264C122.75 23.0066 123.396 22.6114 124.178 22.6114ZM128.979 12.8252L136.193 7.87623C136.94 7.45093 138.069 7.96215 138.711 9.04473C139.348 10.1273 139.238 11.3345 138.487 11.7598L130.495 15.3984C129.994 15.5789 129.318 15.2352 128.927 14.5693C128.536 13.9035 128.567 13.1603 128.979 12.8252ZM117.864 15.3984L109.877 11.7598C109.13 11.3345 109.016 10.1273 109.653 9.04473C110.29 7.96215 111.419 7.45093 112.166 7.87623L119.38 12.8252C119.797 13.156 119.824 13.9035 119.433 14.5693C119.042 15.2352 118.365 15.5789 117.864 15.3984ZM122.662 10.9736L121.889 2.39029C121.889 1.53969 122.904 0.84375 124.182 0.84375C125.46 0.84375 126.475 1.53969 126.475 2.39029L125.698 10.9736C125.61 11.4891 124.964 11.8886 124.178 11.8886C123.396 11.8886 122.75 11.4891 122.662 10.9736ZM140.661 26.5894V26.3746H140.859C140.925 26.3746 140.969 26.4176 140.969 26.482C140.969 26.5421 140.925 26.5894 140.859 26.5894H140.661ZM140.499 26.9803C140.499 27.0018 140.516 27.0233 140.543 27.0233H140.626C140.648 27.0233 140.67 27.0018 140.67 26.9803V26.7355H140.806L140.916 26.9932C140.925 27.0104 140.938 27.0233 140.956 27.0233H141.057C141.087 27.0233 141.109 26.9932 141.096 26.9632C141.057 26.8858 141.017 26.8042 140.978 26.7226C141.044 26.7011 141.145 26.6367 141.145 26.482C141.145 26.3188 141.008 26.2242 140.872 26.2242H140.543C140.521 26.2242 140.499 26.2457 140.499 26.2672V26.9803ZM140.143 26.6238C140.143 26.2758 140.433 25.9923 140.789 25.9923C141.145 25.9923 141.435 26.2715 141.435 26.6238C141.435 26.9717 141.149 27.2553 140.789 27.2553C140.428 27.2553 140.143 26.9717 140.143 26.6238ZM139.989 26.6238C139.989 27.0534 140.345 27.4056 140.789 27.4056C141.228 27.4056 141.588 27.0534 141.588 26.6238C141.588 26.1942 141.228 25.8419 140.789 25.8419C140.345 25.8419 139.989 26.1942 139.989 26.6238Z" fill="#FFC124"/>
</g>
<defs>
<clipPath id="clip0_1828_7840">
<rect width="141.176" height="32.8125" fill="white" transform="translate(0.412109 0.84375)"/>
</clipPath>
</defs>
</svg>
