<svg width="166" height="37" viewBox="0 0 166 37" fill="none" xmlns="http://www.w3.org/2000/svg">
<path d="M32.3657 13.8936L32.3436 13.8715C32.3418 13.8703 32.3404 13.8686 32.3395 13.8667L18.5043 0.03125L4.66937 13.8664C4.66778 13.868 4.66688 13.8701 4.66528 13.8712L4.64245 13.8933C2.52689 16.0207 1.18314 18.7943 0.824825 21.7731C0.466508 24.7519 1.11419 27.7651 2.66489 30.3336C4.2156 32.9021 6.58034 34.8786 9.38322 35.9486C12.1861 37.0187 15.2662 37.1212 18.134 36.2396C18.3753 36.1659 18.6332 36.1659 18.8746 36.2396C21.7421 37.1209 24.8221 37.0183 27.6248 35.9481C30.4275 34.8779 32.792 32.9016 34.3426 30.3332C35.8932 27.7649 36.5409 24.7519 36.1827 21.7733C35.8246 18.7946 34.481 16.0211 32.3657 13.8936ZM9.58891 23.017C9.52156 23.0843 9.46815 23.1644 9.43172 23.2523C9.39528 23.3401 9.37652 23.4345 9.37654 23.5297C9.40116 25.9715 10.0912 28.3603 11.3725 30.4392C11.4016 30.4863 11.4151 30.5415 11.411 30.5967C11.4068 30.6519 11.3853 30.7044 11.3495 30.7468C11.3138 30.7891 11.2655 30.819 11.2117 30.8322C11.1579 30.8454 11.1013 30.8413 11.05 30.8204C10.0867 30.4152 9.21169 29.8262 8.47376 29.0865C6.96149 27.5739 6.11132 25.523 6.10994 23.3841C6.10857 21.2452 6.95611 19.1932 8.46645 17.6788L18.5043 7.64182L28.5417 17.6788C30.0523 19.193 30.9002 21.245 30.8987 23.3841C30.8975 25.523 30.0471 27.5739 28.5348 29.0865C27.7968 29.8262 26.9218 30.4152 25.9588 30.8204C25.9073 30.8413 25.8507 30.8454 25.7969 30.8322C25.7431 30.819 25.6949 30.7889 25.659 30.7468C25.6233 30.7044 25.6017 30.6519 25.5976 30.5965C25.5934 30.5413 25.6068 30.4861 25.636 30.439C26.9175 28.3603 27.608 25.9715 27.633 23.5297C27.633 23.4345 27.614 23.3401 27.5774 23.2521C27.5408 23.164 27.4872 23.0842 27.4197 23.0168L22.6719 17.9809C22.6246 17.9414 22.5651 17.9198 22.5035 17.9198C22.442 17.9198 22.3824 17.9414 22.3352 17.9809C22.2879 18.0202 22.2561 18.0751 22.245 18.1356C22.2339 18.1962 22.2445 18.2585 22.2748 18.3121C24.1188 21.649 22.5331 26.4419 19.8889 29.0865L19.875 29.1004C19.51 29.4615 19.0173 29.6639 18.504 29.6637C17.9906 29.6635 17.498 29.4607 17.1333 29.0995L17.1205 29.0865C14.4753 26.4419 12.8905 21.6495 14.7347 18.3128C14.765 18.2592 14.7756 18.1969 14.7646 18.1363C14.7535 18.0758 14.7216 18.0209 14.6744 17.9816C14.6271 17.9422 14.5675 17.9205 14.506 17.9205C14.4445 17.9205 14.3849 17.9422 14.3376 17.9816L9.58891 23.017Z" fill="url(#paint0_linear_1268_5708)"/>
<path d="M66.4022 11.5858H70.9811L66.2315 27.4556H60.9985L58.7801 18.0702L56.5334 27.4556H51.3003L46.5508 11.5858H51.4141L53.8884 22.7345L56.3343 11.5858H61.482L63.9279 22.7345L66.4022 11.5858Z" fill="#12141D"/>
<path d="M82.8751 22.4216C83.5767 21.739 83.9274 20.7721 83.9274 19.5207C83.9274 18.2693 83.5767 17.3118 82.8751 16.6482C82.1736 15.9657 81.3678 15.6244 80.4577 15.6244C79.5476 15.6244 78.7418 15.9657 78.0403 16.6482C77.3387 17.3308 76.988 18.2978 76.988 19.5491C76.988 20.8005 77.3387 21.7675 78.0403 22.4501C78.7418 23.1137 79.5476 23.4455 80.4577 23.4455C81.3678 23.4455 82.1736 23.1042 82.8751 22.4216ZM74.1439 25.3794C72.7409 23.8626 72.0394 21.9192 72.0394 19.5491C72.0394 17.1791 72.7409 15.2357 74.1439 13.7189C75.547 12.1831 77.2534 11.4152 79.2632 11.4152C81.292 11.4152 82.8467 12.1641 83.9274 13.662V11.5858H88.7907V27.4556H83.9274V25.1519C82.7519 26.8204 81.1782 27.6546 79.2063 27.6546C77.2345 27.6546 75.547 26.8962 74.1439 25.3794Z" fill="#12141D"/>
<path d="M91.0444 11.5858H96.2206L99.8325 23.3886L103.444 11.5858H108.621L102.989 27.4556H96.6756L91.0444 11.5858Z" fill="#12141D"/>
<path d="M117.607 27.6546C115.294 27.6546 113.398 26.9152 111.919 25.4363C110.44 23.9384 109.701 21.9571 109.701 19.4923C109.701 17.0274 110.431 15.065 111.891 13.6051C113.369 12.1452 115.275 11.4152 117.607 11.4152C119.939 11.4152 121.873 12.1357 123.409 13.5767C124.945 15.0176 125.713 17.0179 125.713 19.5776C125.713 20.1274 125.675 20.6394 125.599 21.1134H114.678C114.773 21.8149 115.085 22.3932 115.616 22.8482C116.147 23.2843 116.716 23.5023 117.323 23.5023C117.948 23.5023 118.413 23.4455 118.716 23.3317C119.02 23.199 119.238 23.0757 119.37 22.962C119.522 22.8293 119.712 22.6207 119.939 22.3363H125.201C124.746 23.929 123.836 25.2183 122.47 26.2042C121.105 27.1712 119.484 27.6546 117.607 27.6546ZM120.65 18.0702C120.574 17.3308 120.252 16.7335 119.683 16.2785C119.114 15.8045 118.441 15.5675 117.664 15.5675C116.887 15.5675 116.232 15.8045 115.702 16.2785C115.171 16.7335 114.839 17.3308 114.706 18.0702H120.65Z" fill="#12141D"/>
<path d="M133.7 11.5858V14.5436C134.837 12.458 136.354 11.4152 138.25 11.4152V16.3638H137.056C135.937 16.3638 135.093 16.6293 134.524 17.1601C133.975 17.691 133.7 18.6201 133.7 19.9473V27.4556H128.836V11.5858H133.7Z" fill="#12141D"/>
<path d="M145.327 9.79409C144.777 10.3439 144.104 10.6189 143.308 10.6189C142.511 10.6189 141.838 10.3439 141.288 9.79409C140.738 9.24424 140.464 8.57115 140.464 7.77482C140.464 6.95953 140.738 6.27696 141.288 5.72711C141.838 5.17727 142.511 4.90234 143.308 4.90234C144.104 4.90234 144.777 5.17727 145.327 5.72711C145.877 6.27696 146.152 6.95953 146.152 7.77482C146.152 8.57115 145.877 9.24424 145.327 9.79409ZM140.89 27.4556V11.5858H145.753V27.4556H140.89Z" fill="#12141D"/>
<path d="M159.555 22.4785C160.2 21.7959 160.522 20.81 160.522 19.5207C160.522 18.2314 160.19 17.2549 159.527 16.5913C158.863 15.9088 158.076 15.5675 157.166 15.5675C156.256 15.5675 155.469 15.9088 154.806 16.5913C154.161 17.2549 153.839 18.2314 153.839 19.5207C153.839 20.81 154.171 21.7959 154.834 22.4785C155.517 23.1611 156.313 23.5023 157.223 23.5023C158.133 23.5023 158.911 23.1611 159.555 22.4785ZM151.279 25.4079C149.686 23.91 148.89 21.9381 148.89 19.4923C148.89 17.0464 149.686 15.0935 151.279 13.6335C152.872 12.1546 154.844 11.4152 157.195 11.4152C159.546 11.4152 161.508 12.1546 163.082 13.6335C164.675 15.0935 165.471 17.0464 165.471 19.4923C165.471 21.9381 164.684 23.91 163.11 25.4079C161.537 26.9057 159.574 27.6546 157.223 27.6546C154.872 27.6546 152.891 26.9057 151.279 25.4079Z" fill="#12141D"/>
<defs>
<linearGradient id="paint0_linear_1268_5708" x1="18.5037" y1="0.03125" x2="18.5037" y2="36.8334" gradientUnits="userSpaceOnUse">
<stop stop-color="#F0B645"/>
<stop offset="1" stop-color="#D694FF"/>
</linearGradient>
</defs>
</svg>
