<svg width="188" height="40" viewBox="0 0 188 40" fill="none" xmlns="http://www.w3.org/2000/svg">
<path d="M22.2065 6.70351L23.6935 5.21643C26.6138 2.29621 31.3679 2.22393 34.305 5.12733C35.4178 6.22993 36.1575 7.65344 36.4198 9.19792C36.6822 10.7424 36.454 12.3303 35.7676 13.7385C35.4383 14.4112 35.3274 15.1699 35.4502 15.9087C35.5731 16.6475 35.9236 17.3294 36.4529 17.8593C37.4262 16.8838 38.1975 15.7261 38.7232 14.4524C39.2488 13.1786 39.5184 11.8138 39.5165 10.4359C39.5144 9.05793 39.2412 7.69387 38.7119 6.42162C38.1826 5.14936 37.4078 3.99385 36.4319 3.0211C32.3249 -1.06266 25.6586 -0.981395 21.5632 3.11384L7.38887 17.2878L6.22361 16.1225C3.25386 13.1528 3.23493 8.29843 6.25707 5.38145C7.37573 4.30505 8.80093 3.60237 10.336 3.37043C11.871 3.13849 13.4402 3.38871 14.8269 4.08655C15.4599 4.41091 16.1791 4.52693 16.882 4.41808C17.5848 4.30922 18.2353 3.98104 18.7405 3.4804L18.7766 3.44445C18.7879 3.43328 18.7968 3.41999 18.8029 3.40535C18.809 3.39072 18.8121 3.37502 18.8121 3.35917C18.8121 3.34332 18.809 3.32762 18.8029 3.31299C18.7968 3.29836 18.7879 3.28507 18.7766 3.27389C16.8257 1.372 14.2114 0.303712 11.4869 0.295074C8.76234 0.286439 6.14129 1.33813 4.17838 3.22761C-0.0499489 7.30947 -0.0348393 14.0972 4.12101 18.253L18.2911 32.4232L16.7859 33.9284C13.8657 36.8487 9.11133 36.9209 6.17447 34.0175C5.06158 32.915 4.32202 31.4914 4.05965 29.947C3.79731 28.4025 4.02531 26.8147 4.71168 25.4064C5.04097 24.7337 5.15195 23.975 5.02913 23.2363C4.90629 22.4974 4.55578 21.8154 4.02655 21.2855C3.05333 22.2611 2.28185 23.4187 1.75618 24.6924C1.2305 25.9663 0.960948 27.331 0.962901 28.709C0.964854 30.0869 1.23828 31.4511 1.76756 32.7232C2.29684 33.9955 3.07161 35.1511 4.04759 36.1238C8.1543 40.2077 14.8208 40.1266 18.9162 36.0312L33.1089 21.8383L34.2786 23.008C37.1988 25.9282 37.2711 30.6824 34.3677 33.6192C33.2651 34.7323 31.8416 35.4717 30.2971 35.7343C28.7527 35.9966 27.1648 35.7685 25.7565 35.082C25.0837 34.7526 24.3245 34.6415 23.5855 34.7646C22.8465 34.8876 22.1642 35.2384 21.6343 35.7681C22.6099 36.7414 23.7675 37.5129 25.0412 38.0386C26.3151 38.5642 27.6798 38.8338 29.0579 38.8319C30.4358 38.8298 31.7999 38.5564 33.072 38.0271C34.3444 37.4978 35.4999 36.723 36.4726 35.7471C40.5565 31.6404 40.4753 24.9739 36.38 20.8786L22.2065 6.70351ZM20.4071 30.3062L9.50542 19.4045L20.0897 8.82044L30.9914 19.7222L20.4071 30.3062Z" fill="#0EA5E9"/>
<path d="M57.6148 32.2149C55.4455 32.2149 53.7871 31.5784 52.6396 30.3055C51.5012 29.0325 50.8647 27.2935 50.7302 25.0882L54.1725 24.2277C54.3429 27.67 55.4903 29.3911 57.6148 29.3911C59.336 29.3911 60.1965 28.5305 60.1965 26.8094C60.1965 26.2984 60.1248 25.8278 59.9814 25.3975C59.8469 24.9583 59.6363 24.5594 59.3494 24.2008C59.0626 23.8332 58.8026 23.5419 58.5695 23.3268C58.3364 23.1027 58.0182 22.8292 57.6148 22.5065L53.312 19.0642C52.5231 18.4457 51.8911 17.6613 51.416 16.7111C50.9499 15.7519 50.7168 14.6628 50.7168 13.4436C50.7168 11.6687 51.2681 10.2568 52.3707 9.208C53.4733 8.15918 54.9345 7.63477 56.7543 7.63477C58.7085 7.63477 60.2593 8.11436 61.4067 9.07354C62.5631 10.0238 63.2758 11.3729 63.5447 13.1209C63.5716 13.3092 63.603 13.5691 63.6388 13.9008L60.1965 14.7614C60.1876 14.609 60.1652 14.3804 60.1293 14.0756C59.9769 12.982 59.6318 12.1079 59.0939 11.4536C58.565 10.7902 57.7851 10.4585 56.7543 10.4585C55.9295 10.4585 55.2931 10.6916 54.8449 11.1577C54.3966 11.6149 54.1725 12.2559 54.1725 13.0806C54.1725 14.4342 54.7462 15.5682 55.8937 16.4825L60.1965 19.9248C62.4914 21.7804 63.6388 23.9991 63.6388 26.5808C63.6388 28.3468 63.092 29.7273 61.9984 30.7223C60.9137 31.7173 59.4525 32.2149 57.6148 32.2149Z" fill="#12141D"/>
<path d="M70.8327 29.3911C71.7381 29.3911 72.5986 29.158 73.4144 28.6919V18.0423C73.3785 18.0244 73.2889 17.9706 73.1455 17.881C73.002 17.7913 72.8989 17.733 72.8362 17.7062C72.7824 17.6703 72.6883 17.6165 72.5538 17.5448C72.4194 17.4731 72.3073 17.4238 72.2177 17.3969C72.137 17.361 72.0294 17.3252 71.8949 17.2893C71.7694 17.2445 71.6439 17.2131 71.5184 17.1952C71.4019 17.1773 71.2764 17.1683 71.1419 17.1683C70.8551 17.1683 70.5996 17.2355 70.3755 17.37C70.1604 17.4955 69.9811 17.6479 69.8376 17.8272C69.6942 18.0065 69.5687 18.2619 69.4611 18.5936C69.3625 18.9253 69.2908 19.2211 69.246 19.4811C69.2012 19.7321 69.1653 20.0727 69.1384 20.503C69.1115 20.9243 69.0936 21.2515 69.0846 21.4846C69.0846 21.7177 69.0846 22.0449 69.0846 22.4662C69.0846 22.4841 69.0846 22.4976 69.0846 22.5065C69.0846 22.6589 69.0846 22.9054 69.0846 23.2461C69.0846 23.5867 69.0846 23.9139 69.0846 24.2277C69.0846 24.5414 69.0846 24.8372 69.0846 25.1151C69.0936 25.7157 69.1205 26.2446 69.1653 26.7018C69.2191 27.15 69.3043 27.5938 69.4208 28.033C69.5463 28.4633 69.7256 28.7995 69.9587 29.0415C70.2007 29.2746 70.492 29.3911 70.8327 29.3911ZM73.4144 37.1363V30.4265C72.9034 30.9554 72.3745 31.3857 71.8277 31.7173C71.2899 32.049 70.6713 32.2149 69.9721 32.2149C69.3087 32.2149 68.7171 32.049 68.1972 31.7173C67.6862 31.3767 67.2739 30.9419 66.9601 30.413C66.6553 29.8841 66.3998 29.2611 66.1937 28.544C65.9964 27.8179 65.8575 27.1052 65.7768 26.406C65.7051 25.7068 65.6692 24.9807 65.6692 24.2277V21.6056C65.6692 20.8257 65.7051 20.1131 65.7768 19.4676C65.8485 18.8222 65.9785 18.1857 66.1668 17.5582C66.355 16.9307 66.6015 16.4018 66.9063 15.9716C67.2201 15.5323 67.6324 15.1827 68.1434 14.9227C68.6544 14.6538 69.246 14.5193 69.9183 14.5193C70.3038 14.5193 70.6624 14.5731 70.994 14.6807C71.3347 14.7793 71.6574 14.9407 71.9622 15.1648C72.2759 15.3889 72.518 15.5861 72.6883 15.7564C72.8676 15.9178 73.1096 16.1598 73.4144 16.4825V14.7614H76.8567V37.1363H73.4144Z" fill="#12141D"/>
<path d="M82.0739 32.2149C81.3209 32.2149 80.7158 31.9504 80.2586 31.4215C79.8015 30.8837 79.5729 30.2203 79.5729 29.4315V14.7614H83.0152V28.3826C83.0152 28.7412 83.1227 29.0325 83.3379 29.2566C83.562 29.4808 83.8488 29.5928 84.1984 29.5928C84.3867 29.5928 84.5705 29.5704 84.7497 29.5256C84.929 29.4808 85.1038 29.4046 85.2742 29.297C85.4534 29.1805 85.5924 29.0908 85.691 29.0281C85.7896 28.9563 85.9286 28.8398 86.1078 28.6784C86.2961 28.5171 86.4126 28.4185 86.4574 28.3826V14.7614H89.8997V31.9728H86.4574V30.1172C86.1168 30.413 85.8658 30.6282 85.7044 30.7626C85.5521 30.8971 85.3145 31.0809 84.9918 31.314C84.6691 31.5381 84.3822 31.7039 84.1312 31.8115C83.8892 31.9101 83.5844 31.9997 83.2169 32.0804C82.8493 32.17 82.4683 32.2149 82.0739 32.2149Z" fill="#12141D"/>
<path d="M97.618 29.3911C97.86 29.3911 98.0931 29.3194 98.3172 29.176C98.5503 29.0325 98.7251 28.8936 98.8416 28.7591C98.9582 28.6247 99.1016 28.4454 99.2719 28.2213C99.2988 28.1764 99.3212 28.1451 99.3391 28.1271V23.3671C99.1957 23.4657 98.9582 23.6181 98.6265 23.8243C98.2948 24.0305 98.0304 24.2008 97.8331 24.3352C97.6359 24.4607 97.3984 24.64 97.1205 24.8731C96.8426 25.0972 96.6274 25.3168 96.475 25.532C96.3227 25.7382 96.1882 25.9936 96.0717 26.2984C95.9551 26.6032 95.8969 26.9214 95.8969 27.2531C95.8969 28.6784 96.4706 29.3911 97.618 29.3911ZM95.8969 32.2149C94.9377 32.2149 94.1219 31.8025 93.4496 30.9778C92.7862 30.1441 92.4546 29.2073 92.4546 28.1675C92.4546 27.3338 92.5935 26.5763 92.8714 25.895C93.1583 25.2137 93.4586 24.6714 93.7723 24.268C94.0861 23.8557 94.6105 23.4343 95.3455 23.0041C96.0806 22.5648 96.6364 22.2645 97.0129 22.1031C97.3894 21.9418 98.0438 21.6773 98.9761 21.3098C99.1374 21.247 99.2585 21.1977 99.3391 21.1619V19.9248C99.3391 19.0553 99.2181 18.383 98.9761 17.9078C98.7341 17.4238 98.2814 17.1817 97.618 17.1817C97.0264 17.1817 96.6005 17.3879 96.3406 17.8003C96.0896 18.2037 95.9462 18.7639 95.9103 19.4811C95.9013 19.5797 95.8969 19.7276 95.8969 19.9248H92.4546C92.4725 18.2754 92.9342 16.9621 93.8395 15.985C94.7449 15.0079 96.0044 14.5193 97.618 14.5193C99.2226 14.5193 100.482 15.0169 101.396 16.0119C102.32 16.998 102.781 18.3023 102.781 19.9248V27.67C102.781 29.4628 102.929 30.8971 103.225 31.9728H99.7963L99.3391 29.3911C99.1599 29.7497 99.0119 30.0276 98.8954 30.2248C98.7878 30.422 98.6265 30.6685 98.4113 30.9643C98.1962 31.2512 97.981 31.4753 97.7659 31.6367C97.5508 31.7891 97.2818 31.9235 96.9591 32.0401C96.6364 32.1566 96.2823 32.2149 95.8969 32.2149Z" fill="#12141D"/>
<path d="M105.753 31.9728V14.7614H109.195V17.0607C109.545 16.3794 110.051 15.7878 110.715 15.2858C111.387 14.7748 112.131 14.5193 112.947 14.5193C112.974 14.5193 113.158 14.5373 113.498 14.5731V18.3785C112.862 18.1275 112.225 18.002 111.589 18.002C110.872 18.002 110.294 18.2171 109.854 18.6474C109.415 19.0777 109.195 19.6469 109.195 20.3551V31.9728H105.753Z" fill="#12141D"/>
<path d="M119.818 32.2149C118.984 32.2149 118.258 32.0714 117.64 31.7846C117.03 31.4977 116.542 31.1257 116.174 30.6685C115.816 30.2024 115.524 29.6107 115.3 28.8936C115.076 28.1675 114.919 27.4459 114.829 26.7287C114.749 26.0026 114.699 25.16 114.682 24.2008C114.655 23.4478 114.655 22.6948 114.682 21.9418C114.708 21.0454 114.767 20.252 114.856 19.5618C114.955 18.8625 115.121 18.1857 115.354 17.5313C115.587 16.877 115.887 16.3391 116.255 15.9178C116.631 15.4965 117.12 15.1603 117.72 14.9093C118.33 14.6493 119.038 14.5193 119.845 14.5193C120.58 14.5193 121.225 14.618 121.781 14.8152C122.346 15.0034 122.812 15.2948 123.18 15.6892C123.556 16.0746 123.865 16.5049 124.107 16.98C124.358 17.4552 124.547 18.0333 124.672 18.7146C124.798 19.387 124.883 20.0503 124.928 20.7047C124.982 21.3591 125.008 22.1121 125.008 22.9637V23.3671H118.124V24.2277C118.124 24.3442 118.124 24.528 118.124 24.779C118.106 25.1107 118.101 25.4558 118.11 25.8144C118.128 26.164 118.146 26.5091 118.164 26.8497C118.182 27.1904 118.231 27.5176 118.312 27.8313C118.393 28.1361 118.491 28.405 118.608 28.6381C118.724 28.8712 118.886 29.055 119.092 29.1894C119.307 29.3239 119.558 29.3911 119.845 29.3911C120.204 29.3911 120.499 29.3239 120.732 29.1894C120.966 29.046 121.136 28.8353 121.243 28.5574C121.36 28.2795 121.441 28.0016 121.485 27.7238C121.53 27.4459 121.557 27.0963 121.566 26.6749V25.9488H124.982V26.6346C124.901 28.4723 124.448 29.8617 123.623 30.803C122.799 31.7442 121.53 32.2149 119.818 32.2149ZM118.124 21.646H121.539V20.6106C121.53 20.1534 121.503 19.7545 121.459 19.4139C121.414 19.0732 121.333 18.7326 121.217 18.3919C121.109 18.0513 120.939 17.7913 120.706 17.612C120.472 17.4327 120.186 17.3431 119.845 17.3431C119.495 17.3431 119.2 17.4372 118.958 17.6255C118.724 17.8137 118.55 18.0871 118.433 18.4457C118.326 18.7953 118.249 19.1404 118.205 19.4811C118.16 19.8217 118.133 20.2296 118.124 20.7047V21.646Z" fill="#12141D"/>
<path d="M133.937 32.2149C131.767 32.2149 130.109 31.5784 128.962 30.3055C127.823 29.0325 127.187 27.2935 127.052 25.0882L130.495 24.2277C130.665 27.67 131.812 29.3911 133.937 29.3911C135.658 29.3911 136.519 28.5305 136.519 26.8094C136.519 26.2984 136.447 25.8278 136.303 25.3975C136.169 24.9583 135.958 24.5594 135.671 24.2008C135.385 23.8332 135.125 23.5419 134.892 23.3268C134.658 23.1027 134.34 22.8292 133.937 22.5065L129.634 19.0642C128.845 18.4457 128.213 17.6613 127.738 16.7111C127.272 15.7519 127.039 14.6628 127.039 13.4436C127.039 11.6687 127.59 10.2568 128.693 9.208C129.795 8.15918 131.257 7.63477 133.076 7.63477C135.03 7.63477 136.581 8.11436 137.729 9.07354C138.885 10.0238 139.598 11.3729 139.867 13.1209C139.894 13.3092 139.925 13.5691 139.961 13.9008L136.519 14.7614C136.51 14.609 136.487 14.3804 136.451 14.0756C136.299 12.982 135.954 12.1079 135.416 11.4536C134.887 10.7902 134.107 10.4585 133.076 10.4585C132.252 10.4585 131.615 10.6916 131.167 11.1577C130.719 11.6149 130.495 12.2559 130.495 13.0806C130.495 14.4342 131.068 15.5682 132.216 16.4825L136.519 19.9248C138.813 21.7804 139.961 23.9991 139.961 26.5808C139.961 28.3468 139.414 29.7273 138.32 30.7223C137.236 31.7173 135.775 32.2149 133.937 32.2149Z" fill="#12141D"/>
<path d="M147.101 32.2149C145.747 32.2149 144.761 31.8697 144.143 31.1795C143.533 30.4892 143.219 29.4449 143.201 28.0465V17.3431H141.48V14.7614H143.201V8.73737H146.644V14.7614H149.225V17.3431H146.644V27.3876C146.644 28.0778 146.738 28.5843 146.926 28.907C147.114 29.2298 147.495 29.3911 148.069 29.3911C148.32 29.3911 148.706 29.3463 149.225 29.2566V32.0535C148.365 32.1611 147.657 32.2149 147.101 32.2149Z" fill="#12141D"/>
<path d="M160.44 30.6013C159.642 31.677 158.32 32.2149 156.473 32.2149C154.626 32.2149 153.304 31.677 152.506 30.6013C151.709 29.5256 151.31 27.9748 151.31 25.9488V20.7854C151.31 18.7595 151.709 17.2086 152.506 16.1329C153.304 15.0572 154.626 14.5193 156.473 14.5193C158.32 14.5193 159.642 15.0572 160.44 16.1329C161.238 17.2086 161.637 18.7595 161.637 20.7854V25.9488C161.637 27.9748 161.238 29.5256 160.44 30.6013ZM155.828 29.2835C156.016 29.3553 156.231 29.3911 156.473 29.3911C156.715 29.3911 156.926 29.3553 157.105 29.2835C157.293 29.2118 157.446 29.1267 157.562 29.0281C157.688 28.9205 157.791 28.7681 157.872 28.5709C157.952 28.3647 158.015 28.1854 158.06 28.033C158.105 27.8806 158.136 27.661 158.154 27.3741C158.172 27.0873 158.181 26.8632 158.181 26.7018C158.19 26.5315 158.194 26.2805 158.194 25.9488V20.7854C158.194 20.4537 158.19 20.2072 158.181 20.0458C158.181 19.8755 158.172 19.6469 158.154 19.3601C158.136 19.0732 158.105 18.8536 158.06 18.7012C158.015 18.5488 157.952 18.374 157.872 18.1768C157.791 17.9706 157.688 17.8182 157.562 17.7196C157.446 17.612 157.293 17.5224 157.105 17.4507C156.926 17.379 156.715 17.3431 156.473 17.3431C156.231 17.3431 156.016 17.379 155.828 17.4507C155.648 17.5224 155.496 17.612 155.37 17.7196C155.254 17.8182 155.155 17.9706 155.075 18.1768C154.994 18.374 154.931 18.5488 154.886 18.7012C154.842 18.8536 154.81 19.0732 154.792 19.3601C154.774 19.6469 154.761 19.8755 154.752 20.0458C154.752 20.2072 154.752 20.4537 154.752 20.7854V25.9488C154.752 26.2805 154.752 26.5315 154.752 26.7018C154.761 26.8632 154.774 27.0873 154.792 27.3741C154.81 27.661 154.842 27.8806 154.886 28.033C154.931 28.1854 154.994 28.3647 155.075 28.5709C155.155 28.7681 155.254 28.9205 155.37 29.0281C155.496 29.1267 155.648 29.2118 155.828 29.2835Z" fill="#12141D"/>
<path d="M164.46 31.9728V14.7614H167.903V16.617C168.414 16.1508 168.83 15.7968 169.153 15.5547C169.476 15.3037 169.92 15.0706 170.484 14.8555C171.058 14.6314 171.668 14.5193 172.313 14.5193C173.048 14.5193 173.644 14.7883 174.101 15.3261C174.559 15.864 174.787 16.5229 174.787 17.3028V31.9728H171.345V19.0642C171.345 18.4636 171.26 18.0289 171.089 17.7599C170.919 17.482 170.574 17.3431 170.054 17.3431C169.758 17.3431 169.462 17.4058 169.167 17.5313C168.88 17.6479 168.665 17.7599 168.521 17.8675C168.378 17.9661 168.171 18.1275 167.903 18.3516V31.9728H164.46Z" fill="#12141D"/>
<path d="M182.667 32.2149C181.833 32.2149 181.107 32.0714 180.488 31.7846C179.879 31.4977 179.39 31.1257 179.023 30.6685C178.664 30.2024 178.373 29.6107 178.149 28.8936C177.925 28.1675 177.768 27.4459 177.678 26.7287C177.597 26.0026 177.548 25.16 177.53 24.2008C177.503 23.4478 177.503 22.6948 177.53 21.9418C177.557 21.0454 177.615 20.252 177.705 19.5618C177.804 18.8625 177.969 18.1857 178.203 17.5313C178.436 16.877 178.736 16.3391 179.103 15.9178C179.48 15.4965 179.969 15.1603 180.569 14.9093C181.179 14.6493 181.887 14.5193 182.694 14.5193C183.429 14.5193 184.074 14.618 184.63 14.8152C185.195 15.0034 185.661 15.2948 186.028 15.6892C186.405 16.0746 186.714 16.5049 186.956 16.98C187.207 17.4552 187.395 18.0333 187.521 18.7146C187.646 19.387 187.732 20.0503 187.776 20.7047C187.83 21.3591 187.857 22.1121 187.857 22.9637V23.3671H180.973V24.2277C180.973 24.3442 180.973 24.528 180.973 24.779C180.955 25.1107 180.95 25.4558 180.959 25.8144C180.977 26.164 180.995 26.5091 181.013 26.8497C181.031 27.1904 181.08 27.5176 181.161 27.8313C181.241 28.1361 181.34 28.405 181.457 28.6381C181.573 28.8712 181.734 29.055 181.941 29.1894C182.156 29.3239 182.407 29.3911 182.694 29.3911C183.052 29.3911 183.348 29.3239 183.581 29.1894C183.814 29.046 183.985 28.8353 184.092 28.5574C184.209 28.2795 184.289 28.0016 184.334 27.7238C184.379 27.4459 184.406 27.0963 184.415 26.6749V25.9488H187.83V26.6346C187.75 28.4723 187.297 29.8617 186.472 30.803C185.647 31.7442 184.379 32.2149 182.667 32.2149ZM180.973 21.646H184.388V20.6106C184.379 20.1534 184.352 19.7545 184.307 19.4139C184.262 19.0732 184.182 18.7326 184.065 18.3919C183.958 18.0513 183.787 17.7913 183.554 17.612C183.321 17.4327 183.034 17.3431 182.694 17.3431C182.344 17.3431 182.048 17.4372 181.806 17.6255C181.573 17.8137 181.398 18.0871 181.282 18.4457C181.174 18.7953 181.098 19.1404 181.053 19.4811C181.008 19.8217 180.981 20.2296 180.973 20.7047V21.646Z" fill="#12141D"/>
</svg>
