<svg width="29" height="30" viewBox="0 0 29 30" fill="none" xmlns="http://www.w3.org/2000/svg">
<path d="M6.64626 14.3775C3.03994 14.0095 1.38391 13.6415 0.427132 14.3407C-1.33923 15.6287 2.63512 17.4318 7.5294 17.6158C12.3134 17.763 11.5406 14.8927 6.64626 14.3775Z" fill="#45C9C1"/>
<path d="M15.1837 19.8618C13.5278 18.7947 11.3934 18.7211 10.9518 19.7514C10.3998 21.0762 9.88464 27.5161 10.2894 28.2888C11.0254 29.7608 15.4045 30.644 15.8829 29.4296C16.5821 27.5161 16.1037 20.4506 15.1837 19.8618Z" fill="#45C9C1"/>
<path d="M11.7953 0.0992893C10.0657 0.393682 9.51371 9.22547 11.0961 11.139C12.4208 12.7214 16.5791 14.3773 16.4687 9.44626C16.3215 2.38083 16.1743 -0.599894 11.7953 0.0992893Z" fill="#45C9C1"/>
<path d="M26.1489 14.3042C24.3825 13.5682 17.2435 13.605 16.9859 14.3778C16.3603 15.9601 19.3043 17.1377 23.9041 17.1377C28.5408 17.1377 29.6448 15.7761 26.1489 14.3042Z" fill="#45C9C1"/>
</svg>
