<svg width="50" height="50" viewBox="0 0 50 50" fill="none" xmlns="http://www.w3.org/2000/svg">
<path d="M25 0C20.0555 0 15.222 1.46622 11.1108 4.21326C6.99953 6.96029 3.79521 10.8648 1.90302 15.4329C0.0108323 20.0011 -0.484251 25.0277 0.480379 29.8773C1.44501 34.7268 3.82603 39.1814 7.32234 42.6777C10.8187 46.174 15.2732 48.555 20.1228 49.5196C24.9723 50.4843 29.9989 49.9892 34.5671 48.097C39.1352 46.2048 43.0397 43.0005 45.7867 38.8892C48.5338 34.778 50 29.9445 50 25C50 18.3696 47.3661 12.0107 42.6777 7.32233C37.9893 2.63392 31.6304 0 25 0ZM26.6667 34.6V36.4833C26.6667 36.9254 26.4911 37.3493 26.1785 37.6618C25.866 37.9744 25.442 38.15 25 38.15C24.558 38.15 24.1341 37.9744 23.8215 37.6618C23.5089 37.3493 23.3333 36.9254 23.3333 36.4833V34.6167C22.5058 34.3707 21.7431 33.9441 21.1004 33.3677C20.4577 32.7913 19.9509 32.0794 19.6167 31.2833C19.5262 31.033 19.4969 30.7647 19.5314 30.5007C19.5659 30.2368 19.663 29.985 19.8148 29.7663C19.9666 29.5476 20.1685 29.3685 20.4037 29.2439C20.6389 29.1192 20.9005 29.0528 21.1667 29.05C21.4957 29.0409 21.8201 29.1294 22.0989 29.3044C22.3778 29.4794 22.5985 29.733 22.7333 30.0333C22.9119 30.4881 23.2241 30.878 23.6287 31.1517C24.0334 31.4255 24.5115 31.5701 25 31.5667C25.3231 31.5689 25.6435 31.5071 25.9427 31.385C26.2419 31.2628 26.5139 31.0827 26.7432 30.855C26.9725 30.6273 27.1544 30.3564 27.2786 30.0581C27.4028 29.7598 27.4667 29.4398 27.4667 29.1167C27.4755 28.7856 27.4185 28.456 27.2989 28.1472C27.1794 27.8383 26.9996 27.5563 26.7701 27.3175C26.5406 27.0787 26.2659 26.8879 25.9621 26.7561C25.6582 26.6244 25.3312 26.5543 25 26.55C24.0109 26.5369 23.0409 26.2753 22.1794 25.7893C21.3178 25.3032 20.5922 24.6084 20.0695 23.7686C19.5467 22.9288 19.2434 21.9711 19.1876 20.9834C19.1318 19.9958 19.3252 19.01 19.75 18.1167C20.0875 17.3822 20.584 16.732 21.2038 16.2131C21.8236 15.6942 22.551 15.3197 23.3333 15.1167V13.2C23.3333 12.758 23.5089 12.334 23.8215 12.0215C24.1341 11.7089 24.558 11.5333 25 11.5333C25.442 11.5333 25.866 11.7089 26.1785 12.0215C26.4911 12.334 26.6667 12.758 26.6667 13.2V15.1667C27.5742 15.4295 28.4038 15.9101 29.0833 16.5667C29.6506 17.1329 30.0984 17.8074 30.4 18.55C30.4711 18.7931 30.4859 19.0491 30.4432 19.2988C30.4006 19.5484 30.3016 19.7851 30.1538 19.9907C30.0059 20.1964 29.8132 20.3656 29.5902 20.4856C29.3672 20.6056 29.1197 20.6733 28.8667 20.6833C28.5385 20.6987 28.2131 20.6167 27.9314 20.4476C27.6497 20.2786 27.4242 20.0301 27.2833 19.7333C27.1471 19.4372 26.9611 19.1666 26.7333 18.9333C26.2871 18.4942 25.6924 18.2384 25.0667 18.2167C24.4167 18.2254 23.7961 18.4886 23.338 18.9498C22.88 19.4109 22.621 20.0333 22.6167 20.6833C22.6192 21.3262 22.8644 21.9443 23.3033 22.414C23.7421 22.8838 24.3422 23.1705 24.9833 23.2167C26.3853 23.2481 27.7334 23.7629 28.7994 24.6741C29.8655 25.5852 30.584 26.8367 30.8333 28.2167C31.0199 29.6035 30.7018 31.0113 29.9369 32.1831C29.172 33.3549 28.0114 34.2127 26.6667 34.6Z" fill="white"/>
</svg>
