<svg width="50" height="50" viewBox="0 0 50 50" fill="none" xmlns="http://www.w3.org/2000/svg">
<path d="M50.0029 35.1679V30.1847L45.0152 29.6565C44.7041 28.3813 44.2004 27.1813 43.5366 26.0896L46.6907 22.1884L43.1671 18.6647L39.2659 21.8188C38.1741 21.1551 36.9743 20.6514 35.6989 20.3402L35.1708 15.3525H30.1876L29.6595 20.3402C28.3842 20.6514 27.1843 21.1551 26.0925 21.8188L22.1913 18.6647L18.6677 22.1884L21.8218 26.0896C21.158 27.1813 20.6543 28.3812 20.3432 29.6565L15.3555 30.1847V35.1679L20.3432 35.696C20.6543 36.9713 21.158 38.1712 21.8218 39.263L18.6677 43.1642L22.1913 46.6878L26.0925 43.5337C27.1843 44.1975 28.3841 44.7012 29.6595 45.0123L30.1877 49.9999H35.1709L35.699 45.0122C36.9743 44.7011 38.1742 44.1974 39.266 43.5336L43.1672 46.6877L46.6908 43.1641L43.5367 39.2629C44.2005 38.1711 44.7042 36.9713 45.0153 35.6959L50.0029 35.1679ZM32.6793 38.5139C29.4553 38.5139 26.8417 35.9003 26.8417 32.6763C26.8417 29.4522 29.4553 26.8387 32.6793 26.8387C35.9033 26.8387 38.5169 29.4522 38.5169 32.6763C38.5169 35.9003 35.9033 38.5139 32.6793 38.5139Z" fill="white"/>
<path d="M23.1425 11.1608C22.8997 10.1657 22.5066 9.22959 21.9888 8.37764L24.4498 5.33369L21.7004 2.58428L18.6564 5.04531C17.8046 4.52744 16.8684 4.13438 15.8732 3.8916L15.4612 0H11.573L11.1609 3.8917C10.1658 4.13447 9.22969 4.52744 8.37774 5.04541L5.33379 2.58438L2.58438 5.33379L5.04541 8.37774C4.52754 9.22959 4.13447 10.1658 3.8917 11.1609L0 11.573V15.4611L3.8917 15.8732C4.13447 16.8684 4.52744 17.8045 5.04541 18.6564L2.58438 21.7004L5.33379 24.4498L8.37774 21.9888C9.22959 22.5066 10.1658 22.8997 11.1609 23.1425L11.573 27.0342H15.4612L15.8496 23.3662L14.7295 21.9808L16.5934 20.1169L20.117 16.5933L21.9808 14.7294L23.3662 15.8495L27.0342 15.4611V11.573L23.1425 11.1608ZM13.5171 18.072C11.0015 18.072 8.96221 16.0327 8.96221 13.5171C8.96221 11.0015 11.0015 8.96221 13.5171 8.96221C16.0327 8.96221 18.072 11.0015 18.072 13.5171C18.072 16.0327 16.0327 18.072 13.5171 18.072Z" fill="white"/>
</svg>
